<svg width="28" height="28" viewBox="0 0 28 28" fill="none" xmlns="http://www.w3.org/2000/svg">
<path d="M27.9598 10.7876C27.8633 10.4906 27.6067 10.2742 27.2977 10.2293L18.6176 8.96795L14.7356 1.10244C14.5975 0.822444 14.3123 0.645203 14 0.645203C13.6878 0.645203 13.4026 0.822444 13.2644 1.10244L9.38231 8.96795L0.702342 10.2293C0.393413 10.2742 0.136656 10.4906 0.0401879 10.7876C-0.0563351 11.0846 0.0241646 11.4106 0.247781 11.6285L6.52851 17.751L5.04604 26.3961C4.99322 26.7039 5.11976 27.0148 5.37236 27.1984C5.51526 27.3022 5.68452 27.355 5.85459 27.355C5.98519 27.355 6.11622 27.3239 6.2362 27.2608L14 23.179L21.7635 27.2607C22.0399 27.406 22.3747 27.3819 22.6273 27.1983C22.8799 27.0148 23.0065 26.7038 22.9538 26.396L21.4708 17.751L27.7523 11.6284C27.9758 11.4106 28.0564 11.0846 27.9598 10.7876Z" fill="#4EB7E5"/>
</svg>
