<svg width="28" height="28" viewBox="0 0 28 28" fill="none" xmlns="http://www.w3.org/2000/svg">
<path d="M27.4843 10.9421L27.4843 10.9423C27.522 11.058 27.4906 11.1853 27.4033 11.2704L27.4033 11.2704L21.1218 17.3929L20.9336 17.5764L20.978 17.8355L22.461 26.4805C22.461 26.4805 22.461 26.4805 22.461 26.4805C22.4816 26.6006 22.4321 26.7221 22.3335 26.7938C22.2349 26.8654 22.1042 26.875 21.9961 26.8182C21.9961 26.8182 21.9961 26.8182 21.9961 26.8182L14.2327 22.7365L14 22.6142L13.7673 22.7365L6.00353 26.8182L6.00345 26.8183C5.95663 26.8429 5.90568 26.855 5.85459 26.855C5.78799 26.855 5.72206 26.8344 5.66632 26.7939C5.56756 26.7222 5.51823 26.6007 5.53884 26.4807L5.53885 26.4806L7.02131 17.8355L7.06574 17.5764L6.87752 17.3929L0.596795 11.2705L0.596751 11.2704C0.509447 11.1853 0.478019 11.0581 0.515707 10.9421L0.515724 10.942C0.553387 10.8261 0.653648 10.7416 0.774168 10.7241L0.774246 10.7241L9.45421 9.46275L9.71433 9.42495L9.83067 9.18925L13.7128 1.32374L13.2652 1.10279L13.7128 1.32373C13.7668 1.21441 13.8781 1.1452 14 1.1452C14.122 1.1452 14.2333 1.21443 14.2872 1.32366L14.2872 1.32373L18.1692 9.18924L18.2855 9.42495L18.5457 9.46275L27.2258 10.7241L27.2259 10.7241C27.3464 10.7416 27.4466 10.826 27.4843 10.9421Z" stroke="#3EA3CF"/>
</svg>
